<?xml version="1.0" encoding="utf-8"?>
<!-- Designed by Vexels.com - 2016 All Rights Reserved - https://vexels.com/terms-and-conditions/  -->

<svg version="1.0" id="Capa_1" xmlns="http://www.w3.org/2000/svg" xmlns:xlink="http://www.w3.org/1999/xlink" x="0px" y="0px"
	 width="1200px" height="1199.999px" viewBox="0 0 1200 1199.999" enable-background="new 0 0 1200 1199.999" xml:space="preserve">
<g>
	<path fill="#99287B" d="M724.11,127.999H483.413c-14.65,0-25.674,11.13-25.674,25.796v219.204H316.736l287.128,496.802
		l283.78-491.349l3.262-5.453H751.738V153.795C751.738,139.129,738.732,127.999,724.11,127.999z M860.616,388.999L603.864,833.732
		L347.025,388.999h126.713V153.795c0-5.016,4.672-9.796,9.674-9.796H724.11c4.972,0,9.628,4.78,9.628,9.796v235.204H860.616z"/>
	<path fill="#99287B" d="M1099.738,715.712c0-45.796-37.021-81.713-82.802-81.713h-51.198v268h-722v-226.13
		c0-3.762-1.494-6.942-4.562-8.506c-2.656-1.357-4.939-1.254-7.373,0.325c-2.745,1.786-3.065,5.149-3.065,9.023v243.288h755v-271
		h33.198c36.133,0,64.802,30.566,64.802,66.713v273.999c0,36.169-28.669,66.287-64.802,66.287H183.787
		c-36.074,0-66.048-30.118-66.048-66.287V715.712c0-36.148,29.668-65.553,65.742-65.553l18.978-0.014
		c4.913-0.488,8.531-3.847,8.324-8.707c-0.192-4.708-3.744-7.44-8.79-7.44h-18.205c-45.723,0-84.048,35.917-84.048,81.713v273.999
		c0,45.811,38.325,82.287,84.048,82.287h833.149c45.781,0,82.802-36.476,82.802-82.287V715.712z"/>
</g>
</svg>
